<svg width="108" height="51" viewBox="0 0 108 51" fill="#525258" xmlns="http://www.w3.org/2000/svg">
<path d="M61.8312 11.5328C61.8312 11.5328 58.1669 8.24956 56.0855 11.5328C54.0041 14.8161 54.0041 21.1482 58.0203 19.4186C58.0203 19.4186 60.3948 18.7444 61.8312 17.2493V26.1904C61.8312 26.1904 55.2353 29.7375 49.8414 24.5487C49.8414 24.5487 44.6233 18.6564 49.4016 10.0378C49.4016 10.0378 53.5644 2.41586 62.5934 3.58847L61.8312 11.5328Z"/>
<path d="M63.8539 3.52941L63.1797 10.2132H66.463C66.463 10.2132 65.2024 23.9327 64.8213 25.633V26.2193L71.5345 25.3985C71.5345 25.3985 72.5019 10.2719 72.883 9.36311L76.2249 9.21653V1.77051C76.2249 1.77051 65.1145 3.38284 63.8539 3.52941Z"/>
<path d="M77.7201 1.76991C77.7201 1.76991 76.8993 14.0822 76.5182 14.9031C76.1371 15.7239 75.4628 24.6064 75.8439 25.0461L81.5897 23.9321C81.5897 23.9321 83.9642 1.53539 84.1987 1.1543L77.7201 1.76991Z"/>
<path d="M100.732 9.77339C100.732 9.77339 97.3904 5.52271 93.9605 8.98188C90.56 12.4411 94.4002 15.9589 95.9833 15.9589C97.537 15.9589 99.7356 15.6364 100.732 14.669V22.203C100.732 22.203 93.9019 26.0139 88.7131 21.7046C88.7131 21.7046 81.1791 16.6038 85.8696 6.4901C85.8696 6.4901 89.8857 -2.80277 101.025 1.09613L100.732 9.77339Z"/>
<path d="M0.152344 50.0819H5.57563L7.30522 43.486C7.30522 43.486 8.91755 49.3491 9.15207 49.5249C9.15207 49.5249 13.0217 44.6 13.9597 43.486L13.2855 49.7888L18.4743 50.0819C18.4743 50.0819 18.2397 33.1965 18.4743 32.9326H14.8978C14.8978 32.9326 11.2334 38.9715 11.2921 39.3526C11.3214 39.7337 9.94358 34.7795 9.82632 33.6948L5.75152 33.5776C5.75152 33.5776 0.6507 49.1439 0.152344 50.0819Z"/>
<path d="M37.3824 31.2907C37.3824 31.2907 36.5909 40.4663 35.9752 41.4923C35.3596 42.5183 35.1544 49.466 35.1251 49.7298C35.0958 50.023 40.7829 49.4367 40.7829 49.4367C40.7829 49.4367 41.2226 41.2285 41.6331 40.5249C41.6331 40.5249 45.0336 49.3194 45.9424 49.3194C46.8511 49.3194 51.1898 49.0556 51.1898 49.0556C51.1898 49.0556 51.6295 39.7334 52.6848 36.714C53.7402 33.6945 53.7988 28.7109 53.7988 28.7109H48.2583C48.2583 28.7109 48.8153 31.3493 48.0237 33.9583C47.2322 36.5967 46.5287 39.0005 46.5287 39.0005L43.4506 29.7076C43.4799 29.737 38.7309 31.2907 37.3824 31.2907Z"/>
<path d="M54.9713 28.7401C54.9713 28.7401 54.2092 36.45 53.3004 38.9711C52.3916 41.4922 52.3623 49.0261 52.3623 49.0261L58.2253 48.5864L58.6064 42.0491L61.3034 48.645L67.8407 48.3519L63.1502 37.8864C63.1502 37.8864 68.3976 30.8801 69.6582 27.3916L63.502 27.9193C63.502 27.9193 60.3653 34.0754 59.867 34.5738C59.867 34.5738 60.6585 30.2058 60.4826 28.3004L54.9713 28.7401Z"/>
<path d="M70.8018 27.0399C70.5673 27.0692 69.7465 36.3328 69.1895 38.9419C68.6325 41.5802 68.6325 47.3846 68.8084 48.2347H79.7136L80.6517 41.6975H74.6714L74.9352 39.8506L78.6876 39.6747L78.8635 34.0169L75.3456 34.1342V32.2873L80.3292 31.789L79.9774 25.6328C79.9774 25.6621 76.0492 26.3364 70.8018 27.0399Z"/>
<path d="M80.9448 25.6621C80.9448 25.6621 84.0815 37.095 84.873 38.2383L84.2281 48.264H90.1204L90.7947 38.5314C90.7947 38.5314 96.3939 26.5709 96.3939 25.6621H90.2377L88.215 30.9095L86.9251 25.6621H80.9448Z"/>
<path d="M98.3871 26.2192C98.3871 26.2192 94.84 28.154 94.752 32.6686C94.6934 35.8053 96.3644 38.385 99.2079 39.6749C100.615 40.2905 100.996 40.6129 100.996 41.3751C100.996 42.6357 97.537 42.4012 95.9539 39.7628L93.8433 45.919C93.8433 45.919 96.8041 49.7299 101.494 48.2055C106.185 46.7105 107.152 42.4598 107.152 40.7009C107.152 38.9713 106.361 35.0431 102.667 33.6066C101.319 33.079 100.615 32.6099 100.996 31.7012C101.788 29.8543 104.133 31.5839 105.423 33.1669L107.152 28.0661C107.152 28.1247 103.752 23.5223 98.3871 26.2192Z"/>
<path d="M34.8029 36.5381C34.8029 36.5381 33.1319 31.8184 28.3242 31.8184C28.3242 31.8184 24.9237 32.346 22.4612 34.7206C22.4612 34.7206 16.9207 40.0266 20.0574 46.5638C20.0574 46.5638 24.0736 53.277 30.6694 48.3521C30.6694 48.3521 36.5325 45.1567 34.8029 36.5381ZM28.5001 43.1926C27.7673 43.9841 25.8031 44.9222 24.7478 42.8115C23.6925 40.7008 25.979 38.3849 25.979 38.3849C25.979 38.3849 27.9431 36.2156 29.3796 38.3849C30.8453 40.5836 29.233 42.4304 28.5001 43.1926Z"/>
<path d="M44.0076 19.8874C47.9651 15.2556 47.9651 10.6531 46.3821 8.57175C44.8284 6.49038 42.1314 6.87147 39.4638 7.98545C36.7668 9.09942 33.1317 9.33394 33.1903 10.0668C33.2783 10.7997 30.8158 29.2096 30.8158 29.2096V28.6233C30.8158 28.6233 29.9071 20.415 29.2621 18.7734C28.5879 17.1317 28.0602 11.2394 27.7084 11.5326C27.3273 11.8257 20.9953 12.9397 20.8487 13.1742C20.7021 13.4087 20.409 17.0438 17.0377 21.7342C13.6958 26.4539 11.292 31.8186 11.292 31.8186L18.5328 31.3789C18.4449 29.8252 19.4416 28.2422 19.4416 28.2422L23.9854 28.0956L24.2199 30.9978C28.9103 32.0531 37.6462 29.5907 37.6462 29.5907L38.0273 22.7309C39.2293 24.0794 40.3432 29.063 40.9295 28.6819C41.5158 28.3008 48.6687 27.1868 48.6687 27.1868L44.0076 19.8874ZM23.8975 23.0241L21.6695 23.3172L23.8975 18.4802V23.0241ZM41.252 15.109C40.7243 16.6627 38.4084 17.1317 38.4084 17.1317L38.9361 13.0863C40.9002 12.3241 41.7797 13.5553 41.252 15.109Z"/>
</svg>
