<svg width="99" height="62" viewBox="0 0 99 62" fill="#525258" xmlns="http://www.w3.org/2000/svg">
<path d="M67.8424 46.4812H38.8878L41.8575 49.3758C41.8575 49.3758 25.3572 54.7354 17.1534 61.9812C17.1534 61.9812 29.9602 54.8101 52.0659 54.6233C52.0659 54.6233 48.725 51.0938 48.5394 50.8137C48.5394 50.8137 55.481 49.992 77.5867 53.1667L75.8791 50.0854H92.7507L93.7344 44.0908H66.3019L67.8424 46.4812ZM33.0041 47.1908C35.2314 43.5492 36.1038 40.2625 36.2708 37.536C36.345 37.8348 36.4378 38.1149 36.5121 38.4137C37.9227 43.0077 42.6371 43.7173 46.2564 42.4474C49.3375 41.3643 51.5091 36.4155 52.27 30.9065L53.1238 42.1486H59.1003L63.8519 31.5041L66.2647 42.1486H72.1856L77.2712 26.1444L74.5799 42.186H80.6492L84.7697 17.7408H79.9625H73.4291L69.5128 27.1529L67.9352 17.8155H63.128L58.4507 27.433L57.8939 17.7408H51.2863L51.5091 20.6914C50.6367 18.992 49.2632 18.077 47.37 17.8342C45.0128 17.5354 43.2681 18.189 42.303 18.7306C44.6231 12.4932 43.9178 3.64142 36.9947 1.06431C29.7003 -1.6622 21.4037 1.47515 17.339 3.23057C17.339 3.23057 19.3064 4.05226 19.5662 4.38841C19.5662 4.38841 1.32117 20.5047 0.151855 29.8047C0.151855 29.8047 9.95186 12.045 27.8628 9.93479L27.0833 8.21672C27.0833 8.21672 32.8371 8.47816 32.4473 14.9209C32.0575 21.3077 24.9859 23.8288 21.8121 23.7354L25.2458 13.6324L14.9632 14.7902L6.05413 34.492C6.05413 34.492 7.74314 33.745 8.68973 33.5396L2.82458 47.1348L6.66663 45.7155C6.66663 45.7155 5.72004 54.4179 10.9913 55.9119C16.2625 57.3872 27.139 56.8456 33.0041 47.1908ZM41.5977 29.6179C42.1545 25.9203 43.9734 23.1378 45.6439 23.3992C47.3144 23.6607 48.2053 26.8541 47.6484 30.5517C47.0916 34.2492 45.2727 37.0318 43.6022 36.7703C41.9318 36.5089 41.0223 33.2968 41.5977 29.6179ZM37.1803 26.5739C36.3079 28.7215 35.8996 30.7011 35.7882 32.4938C35.3056 30.7384 34.6189 29.5619 34.2106 29.0577C34.2291 29.0577 35.5284 28.236 37.1803 26.5739ZM21.2181 25.5095L22.2575 26.7794L20.6242 28.2173L20.4386 27.8252L21.2181 25.5095ZM19.9003 45.2113C17.4132 45.2113 16.8935 43.9041 17.1534 42.8396C17.3761 41.9059 20.5871 31.7095 21.3109 29.3752C23.0185 30.5517 26.0253 33.0727 26.3037 36.2661C26.6935 40.7294 22.3875 45.2113 19.9003 45.2113ZM97.2424 23.642L98.1519 17.5541L86.4216 17.7221L82.2454 42.0739H94.4954L95.4606 35.5752H90.375L90.8947 32.5312L95.9246 32.5872L96.8155 26.6673H91.5443L92.064 23.6233L97.2424 23.642Z"/>
</svg>
