<svg width="106" height="46" viewBox="0 0 106 46" fill="#525258" xmlns="http://www.w3.org/2000/svg">
<path d="M0.152344 0V5.39707H105.152V0H0.152344ZM0.152344 46H105.152V40.6029H0.152344V46ZM33.0606 34.3064V11.9935H24.1665L19.2747 26.8104H19.2006L14.5312 11.9935H5.26646V34.3064H11.0229L10.8994 17.1907H10.9735L16.3347 34.3064H21.7453L27.3782 17.1907H27.4523L27.3535 34.3064H33.0606ZM38.5947 11.9935V25.836C38.5947 31.9326 42.5229 34.6812 48.2547 34.6812C54.0112 34.6812 57.9147 31.9326 57.9147 25.836V11.9935H52.0347V24.8365C52.0347 27.7849 51.2441 30.2586 48.2547 30.2586C45.2406 30.2586 44.4747 27.7599 44.4747 24.8365V11.9935H38.5947ZM72.9606 16.0413C74.6406 16.0413 76.3453 16.3661 77.8523 17.0657L78.2229 12.4682C76.7406 11.9685 74.6653 11.6437 72.5406 11.6437C68.1182 11.6437 62.93 13.1179 62.93 18.49C62.93 26.6105 73.3559 23.987 73.3559 28.1347C73.3559 29.9337 71.577 30.3085 69.7241 30.3085C67.3029 30.3085 65.1782 29.6589 63.6465 28.8343L63.1523 33.7567C65.1041 34.4063 67.6735 34.7061 69.7241 34.7061C74.6159 34.7061 79.4335 33.132 79.4335 27.3601C79.4335 19.3145 69.0076 21.7382 69.0076 18.1152C69.0076 16.1662 71.4782 16.0413 72.9606 16.0413ZM100.211 16.2162V11.9935H84.6465V34.3064H100.532V30.0836H90.5265V25.0364H99.6676V20.8387H90.5265V16.2162H100.211Z"/>
</svg>
