<svg width="115" height="40" viewBox="0 0 115 40" fill="#525258" xmlns="http://www.w3.org/2000/svg">
<path d="M12.7487 35.3566C12.8153 33.1343 12.682 23.4494 12.682 23.4494C12.682 23.4494 12.7487 19.9337 10.1161 19.1708C11.6823 18.607 12.6154 16.4511 12.6154 14.66C12.6154 12.869 12.6154 5.5058 12.6154 5.5058C12.6154 5.5058 12.4487 0.0995025 7.28359 0.0995025L0.152344 0V39.602H4.95094V21.0945H6.51715C6.51715 21.0945 7.75012 20.8624 7.81677 23.0182C7.88342 25.1741 7.81677 35.4561 7.81677 35.4561C7.81677 35.4561 8.05003 38.7396 8.51656 39.3698H13.7484C13.7484 39.3698 12.682 37.5788 12.7487 35.3566ZM7.81677 5.93698C7.81677 5.93698 7.81677 12.3715 7.81677 15.058C7.81677 17.7114 5.08424 17.1808 5.08424 17.1808L4.95094 3.91376C8.11668 3.8806 7.81677 5.93698 7.81677 5.93698Z"/>
<path d="M25.6452 0.166016H17.4143L14.1152 39.37H18.3473L19.1471 31.3103H22.946L23.6458 39.4363H28.2444L25.6452 0.166016ZM19.347 27.7282L21.2798 6.46784L22.7127 27.7282H19.347Z"/>
<path d="M98.59 0.166016H90.3591L87.0601 39.37H91.2922L92.0919 31.3103H95.8908L96.5906 39.4363H101.189L98.59 0.166016ZM92.2919 27.7282L94.2246 6.46784L95.6575 27.7282H92.2919Z"/>
<path d="M35.9754 0.298828C29.8772 0.298828 29.144 0.298828 29.144 0.298828V39.5691H35.8754C35.8754 39.5691 40.8406 40.133 41.0406 33.9307C41.2405 27.7283 41.5404 6.03681 41.5404 6.03681C41.5404 6.03681 42.0736 0.298828 35.9754 0.298828ZM36.5752 5.87097C36.5752 5.87097 36.2086 29.9174 36.2086 33.0683C36.2086 36.2192 33.5428 35.4232 33.5428 35.4232L33.976 4.24576C36.9084 4.37843 36.5752 5.87097 36.5752 5.87097Z"/>
<path d="M108.62 0.298828C102.522 0.298828 101.789 0.298828 101.789 0.298828V39.5691H108.52C108.52 39.5691 113.486 40.133 113.686 33.9307C113.886 27.7283 114.185 6.03681 114.185 6.03681C114.185 6.03681 114.719 0.298828 108.62 0.298828ZM109.22 5.87097C109.22 5.87097 108.854 29.9174 108.854 33.0683C108.854 36.2192 106.188 35.4232 106.188 35.4232L106.621 4.24576C109.553 4.37843 109.22 5.87097 109.22 5.87097Z"/>
<path d="M47.0388 0.298828H42.3735V39.5691H47.0388V0.298828Z"/>
<path d="M55.636 0.232192H52.9701C52.9701 0.232192 48.0049 -0.26532 47.7383 6.79936L47.9715 34.1957C47.9715 34.1957 47.7716 40.0332 52.6369 40.0332C52.9368 40.0332 55.8692 40.0332 55.8692 40.0332C55.8692 40.0332 60.1013 40.1659 60.2346 34.5274C60.3679 28.8889 60.4346 5.90383 60.4346 5.90383C60.4346 5.90383 60.8011 0.5307 55.636 0.232192ZM54.0698 35.6551C52.7701 35.6551 52.9034 34.0962 52.9034 34.0962V6.53402C52.9034 6.53402 52.7701 4.6103 54.1364 4.6103C55.5027 4.6103 55.5027 6.40135 55.5027 6.40135L55.3694 33.9635C55.4027 33.9967 55.5693 35.6551 54.0698 35.6551Z"/>
<path d="M68.5991 0.332031V16.9489H65.9666V0.332031H61.3013V39.7018H65.9666V21.3602H68.5991V39.7018H73.2644V0.332031H68.5991Z"/>
<path d="M86.2602 4.37822V0.0996094H80.5952H79.6622H75.9966V39.7016H79.6622H80.5952H86.2602V35.423H80.5952V21.2936H85.2605V17.015H80.5952V4.37822H86.2602Z"/>
</svg>
